<mxfile host="app.diagrams.net" agent="Mozilla/5.0 (Macintosh; Intel Mac OS X 10_15_7) AppleWebKit/537.36 (KHTML, like Gecko) Chrome/131.0.0.0 Safari/537.36" version="25.0.3">
  <diagram id="C5RBs43oDa-KdzZeNtuy" name="Page-1">
    <mxGraphModel dx="2074" dy="1121" grid="1" gridSize="10" guides="1" tooltips="1" connect="1" arrows="1" fold="1" page="1" pageScale="1" pageWidth="3000" pageHeight="1500" math="0" shadow="0">
      <root>
        <mxCell id="WIyWlLk6GJQsqaUBKTNV-0" />
        <mxCell id="WIyWlLk6GJQsqaUBKTNV-1" parent="WIyWlLk6GJQsqaUBKTNV-0" />
        <mxCell id="zkfFHV4jXpPFQw0GAbJ--0" value="LoginController" style="swimlane;fontStyle=2;align=center;verticalAlign=top;childLayout=stackLayout;horizontal=1;startSize=26;horizontalStack=0;resizeParent=1;resizeLast=0;collapsible=1;marginBottom=0;rounded=0;shadow=0;strokeWidth=1;" parent="WIyWlLk6GJQsqaUBKTNV-1" vertex="1">
          <mxGeometry x="890" y="90" width="400" height="180" as="geometry">
            <mxRectangle x="230" y="140" width="160" height="26" as="alternateBounds" />
          </mxGeometry>
        </mxCell>
        <mxCell id="zkfFHV4jXpPFQw0GAbJ--1" value="- usernameField : TextField&#xa;- passwordField : PasswordField&#xa;- loginResultLabel : Label&#xa;- createAccountLink : HyperLink&#xa;&#xa;" style="text;align=left;verticalAlign=top;spacingLeft=4;spacingRight=4;overflow=hidden;rotatable=0;points=[[0,0.5],[1,0.5]];portConstraint=eastwest;" parent="zkfFHV4jXpPFQw0GAbJ--0" vertex="1">
          <mxGeometry y="26" width="400" height="74" as="geometry" />
        </mxCell>
        <mxCell id="zkfFHV4jXpPFQw0GAbJ--4" value="" style="line;html=1;strokeWidth=1;align=left;verticalAlign=middle;spacingTop=-1;spacingLeft=3;spacingRight=3;rotatable=0;labelPosition=right;points=[];portConstraint=eastwest;" parent="zkfFHV4jXpPFQw0GAbJ--0" vertex="1">
          <mxGeometry y="100" width="400" height="8" as="geometry" />
        </mxCell>
        <mxCell id="zkfFHV4jXpPFQw0GAbJ--5" value="+ loginButtonClicked(event : ActionEvent) : void&#xa;+ createAccLinkClicked(event : ActionEvent) : void&#xa;- switchToDashboardScene(event : ActionEvent, username : String) : void&#xa;- switchToCreateAccScene(event : ActionEvent) : void&#xa;&#xa;" style="text;align=left;verticalAlign=top;spacingLeft=4;spacingRight=4;overflow=hidden;rotatable=0;points=[[0,0.5],[1,0.5]];portConstraint=eastwest;" parent="zkfFHV4jXpPFQw0GAbJ--0" vertex="1">
          <mxGeometry y="108" width="400" height="72" as="geometry" />
        </mxCell>
        <mxCell id="l0dRIvrW9T533fnr_r0f-0" value="CreateAccController" style="swimlane;fontStyle=2;align=center;verticalAlign=top;childLayout=stackLayout;horizontal=1;startSize=26;horizontalStack=0;resizeParent=1;resizeLast=0;collapsible=1;marginBottom=0;rounded=0;shadow=0;strokeWidth=1;" parent="WIyWlLk6GJQsqaUBKTNV-1" vertex="1">
          <mxGeometry x="1410" y="60" width="400" height="220" as="geometry">
            <mxRectangle x="230" y="140" width="160" height="26" as="alternateBounds" />
          </mxGeometry>
        </mxCell>
        <mxCell id="l0dRIvrW9T533fnr_r0f-1" value="- usernameField : TextField&#xa;- passwordField : PasswordField&#xa;- securityQuestion1Field : TextField&#xa;- securityQuestion2Field : TextField&#xa;- securityAnswer1Field : TextField&#xa;- securityAnswer2Field : TextField&#xa;- createAccResultLabel : Label&#xa;- loginLink : HyperLink&#xa;&#xa;&#xa;" style="text;align=left;verticalAlign=top;spacingLeft=4;spacingRight=4;overflow=hidden;rotatable=0;points=[[0,0.5],[1,0.5]];portConstraint=eastwest;" parent="l0dRIvrW9T533fnr_r0f-0" vertex="1">
          <mxGeometry y="26" width="400" height="124" as="geometry" />
        </mxCell>
        <mxCell id="l0dRIvrW9T533fnr_r0f-2" value="" style="line;html=1;strokeWidth=1;align=left;verticalAlign=middle;spacingTop=-1;spacingLeft=3;spacingRight=3;rotatable=0;labelPosition=right;points=[];portConstraint=eastwest;" parent="l0dRIvrW9T533fnr_r0f-0" vertex="1">
          <mxGeometry y="150" width="400" height="8" as="geometry" />
        </mxCell>
        <mxCell id="l0dRIvrW9T533fnr_r0f-3" value="+confirmButtonClicked(event : ActionEvent) : void&#xa;+ loginLinkClicked(event : ActionEvent) : void&#xa;- switchToLoginScene(event : ActionEvent) : void&#xa;- StrengthCheck(password: String) : String&#xa;" style="text;align=left;verticalAlign=top;spacingLeft=4;spacingRight=4;overflow=hidden;rotatable=0;points=[[0,0.5],[1,0.5]];portConstraint=eastwest;" parent="l0dRIvrW9T533fnr_r0f-0" vertex="1">
          <mxGeometry y="158" width="400" height="62" as="geometry" />
        </mxCell>
        <mxCell id="l0dRIvrW9T533fnr_r0f-4" value="DashboardController" style="swimlane;fontStyle=2;align=center;verticalAlign=top;childLayout=stackLayout;horizontal=1;startSize=26;horizontalStack=0;resizeParent=1;resizeLast=0;collapsible=1;marginBottom=0;rounded=0;shadow=0;strokeWidth=1;" parent="WIyWlLk6GJQsqaUBKTNV-1" vertex="1">
          <mxGeometry x="1400" y="532" width="350" height="440" as="geometry">
            <mxRectangle x="230" y="140" width="160" height="26" as="alternateBounds" />
          </mxGeometry>
        </mxCell>
        <mxCell id="l0dRIvrW9T533fnr_r0f-5" value="- usernameLabel : Label&#xa;- username: String&#xa;- credentialListView : ListView&lt;CredentialDetails&#xa;- detailNicknameLabel : Label&#xa;- detailNotesTextArea : TextArea&#xa;- detailPanel : AnchorPane&#xa;- viewDetailContainer : AnchorPane&#xa;- addCredentialPanel : AnchorPane&#xa;- addCredentialContainer:  AnchorPane&#xa;- editCredentialPanel : AnchorPane&#xa;- editCredentialContainer : AnchorPane&#xa;&#xa;&#xa;&#xa;" style="text;align=left;verticalAlign=top;spacingLeft=4;spacingRight=4;overflow=hidden;rotatable=0;points=[[0,0.5],[1,0.5]];portConstraint=eastwest;" parent="l0dRIvrW9T533fnr_r0f-4" vertex="1">
          <mxGeometry y="26" width="350" height="174" as="geometry" />
        </mxCell>
        <mxCell id="l0dRIvrW9T533fnr_r0f-6" value="" style="line;html=1;strokeWidth=1;align=left;verticalAlign=middle;spacingTop=-1;spacingLeft=3;spacingRight=3;rotatable=0;labelPosition=right;points=[];portConstraint=eastwest;" parent="l0dRIvrW9T533fnr_r0f-4" vertex="1">
          <mxGeometry y="200" width="350" height="8" as="geometry" />
        </mxCell>
        <mxCell id="l0dRIvrW9T533fnr_r0f-7" value="+ settingButtonClicked(event : ActionEvent) : void&#xa;- switchToSettingsScene(event : ActionEvent) : void&#xa;+ strengthCheckerButtonClicked(event : ActionEvent) : void&#xa;- switchtoPasswordStrengthChecker(event : ActionEvent) : void&#xa;+ generatorButtonClicked(event : ActionEvent) : void&#xa;- switchToPaswordGenerator(event : ActionEvent) : void&#xa;+ logoutClicked(event : ActionEvent) : void&#xa;- switchToLoginScene(event : ActionEvent) : void&#xa;+ initialize() : void&#xa;- displayDetail(selectedCredential : CredentialDetails) : void&#xa;- getCredentialDetails(selectedCredentials : CredentialDetails) : &#xa;CredentialDetails&#xa;- addNewCredentialButton() : void&#xa;+ getContentPane() : pane&#xa;+ displayEdit(selectedCredential : CredentialDetails) : void&#xa;&#xa;&#xa;&#xa;&#xa;&#xa;&#xa;" style="text;align=left;verticalAlign=top;spacingLeft=4;spacingRight=4;overflow=hidden;rotatable=0;points=[[0,0.5],[1,0.5]];portConstraint=eastwest;" parent="l0dRIvrW9T533fnr_r0f-4" vertex="1">
          <mxGeometry y="208" width="350" height="232" as="geometry" />
        </mxCell>
        <mxCell id="l0dRIvrW9T533fnr_r0f-8" value="PasswordStrengthCheckerController" style="swimlane;fontStyle=2;align=center;verticalAlign=top;childLayout=stackLayout;horizontal=1;startSize=26;horizontalStack=0;resizeParent=1;resizeLast=0;collapsible=1;marginBottom=0;rounded=0;shadow=0;strokeWidth=1;" parent="WIyWlLk6GJQsqaUBKTNV-1" vertex="1">
          <mxGeometry x="880" y="532" width="400" height="140" as="geometry">
            <mxRectangle x="230" y="140" width="160" height="26" as="alternateBounds" />
          </mxGeometry>
        </mxCell>
        <mxCell id="l0dRIvrW9T533fnr_r0f-9" value="- usernameField : TextField&#xa;- passwordStrengthCheckerLabel : Label&#xa;&#xa;&#xa;" style="text;align=left;verticalAlign=top;spacingLeft=4;spacingRight=4;overflow=hidden;rotatable=0;points=[[0,0.5],[1,0.5]];portConstraint=eastwest;" parent="l0dRIvrW9T533fnr_r0f-8" vertex="1">
          <mxGeometry y="26" width="400" height="34" as="geometry" />
        </mxCell>
        <mxCell id="l0dRIvrW9T533fnr_r0f-10" value="" style="line;html=1;strokeWidth=1;align=left;verticalAlign=middle;spacingTop=-1;spacingLeft=3;spacingRight=3;rotatable=0;labelPosition=right;points=[];portConstraint=eastwest;" parent="l0dRIvrW9T533fnr_r0f-8" vertex="1">
          <mxGeometry y="60" width="400" height="8" as="geometry" />
        </mxCell>
        <mxCell id="l0dRIvrW9T533fnr_r0f-11" value="+ passwordStrengthButtonClicked(event : ActionEvent) : void&#xa;- checkPasswordStrength(event : ActionEvent) : void&#xa;+ BackToDashClicked(event : ActionEvent) : void&#xa;- switchToDashboardScene(event : ActionEvent) : void&#xa;" style="text;align=left;verticalAlign=top;spacingLeft=4;spacingRight=4;overflow=hidden;rotatable=0;points=[[0,0.5],[1,0.5]];portConstraint=eastwest;" parent="l0dRIvrW9T533fnr_r0f-8" vertex="1">
          <mxGeometry y="68" width="400" height="62" as="geometry" />
        </mxCell>
        <mxCell id="l0dRIvrW9T533fnr_r0f-12" value="PasswordGeneratorController" style="swimlane;fontStyle=2;align=center;verticalAlign=top;childLayout=stackLayout;horizontal=1;startSize=26;horizontalStack=0;resizeParent=1;resizeLast=0;collapsible=1;marginBottom=0;rounded=0;shadow=0;strokeWidth=1;" parent="WIyWlLk6GJQsqaUBKTNV-1" vertex="1">
          <mxGeometry x="890" y="732" width="400" height="220" as="geometry">
            <mxRectangle x="230" y="140" width="160" height="26" as="alternateBounds" />
          </mxGeometry>
        </mxCell>
        <mxCell id="l0dRIvrW9T533fnr_r0f-13" value="- generatorInput : TextField&#xa;- generatorLabel : Label&#xa;- copyButton : Button&#xa;- generatePassword : String&#xa;&#xa;&#xa;&#xa;" style="text;align=left;verticalAlign=top;spacingLeft=4;spacingRight=4;overflow=hidden;rotatable=0;points=[[0,0.5],[1,0.5]];portConstraint=eastwest;" parent="l0dRIvrW9T533fnr_r0f-12" vertex="1">
          <mxGeometry y="26" width="400" height="74" as="geometry" />
        </mxCell>
        <mxCell id="l0dRIvrW9T533fnr_r0f-14" value="" style="line;html=1;strokeWidth=1;align=left;verticalAlign=middle;spacingTop=-1;spacingLeft=3;spacingRight=3;rotatable=0;labelPosition=right;points=[];portConstraint=eastwest;" parent="l0dRIvrW9T533fnr_r0f-12" vertex="1">
          <mxGeometry y="100" width="400" height="8" as="geometry" />
        </mxCell>
        <mxCell id="l0dRIvrW9T533fnr_r0f-15" value="+ BackToDashClicked(event : ActionEvent) : void&#xa;- switchToDashboardScene(event : ActionEvent) : void&#xa;+ passwordGeneratorButtonClicked(event : ActionEvent) : void&#xa;- passwordGenerator() : void&#xa;- generateSecurePassword(length : int) : String&#xa;- shuffleString(input : String, random : SecureRandom) : String&#xa;+ copyToClipboard() : void&#xa;&#xa;" style="text;align=left;verticalAlign=top;spacingLeft=4;spacingRight=4;overflow=hidden;rotatable=0;points=[[0,0.5],[1,0.5]];portConstraint=eastwest;" parent="l0dRIvrW9T533fnr_r0f-12" vertex="1">
          <mxGeometry y="108" width="400" height="112" as="geometry" />
        </mxCell>
        <mxCell id="l0dRIvrW9T533fnr_r0f-16" value="SettingsController" style="swimlane;fontStyle=2;align=center;verticalAlign=top;childLayout=stackLayout;horizontal=1;startSize=26;horizontalStack=0;resizeParent=1;resizeLast=0;collapsible=1;marginBottom=0;rounded=0;shadow=0;strokeWidth=1;" parent="WIyWlLk6GJQsqaUBKTNV-1" vertex="1">
          <mxGeometry x="880" y="1022" width="400" height="150" as="geometry">
            <mxRectangle x="230" y="140" width="160" height="26" as="alternateBounds" />
          </mxGeometry>
        </mxCell>
        <mxCell id="l0dRIvrW9T533fnr_r0f-17" value="- usernameLabel : Label&#xa;- username : String&#xa;&#xa;&#xa;" style="text;align=left;verticalAlign=top;spacingLeft=4;spacingRight=4;overflow=hidden;rotatable=0;points=[[0,0.5],[1,0.5]];portConstraint=eastwest;" parent="l0dRIvrW9T533fnr_r0f-16" vertex="1">
          <mxGeometry y="26" width="400" height="34" as="geometry" />
        </mxCell>
        <mxCell id="l0dRIvrW9T533fnr_r0f-18" value="" style="line;html=1;strokeWidth=1;align=left;verticalAlign=middle;spacingTop=-1;spacingLeft=3;spacingRight=3;rotatable=0;labelPosition=right;points=[];portConstraint=eastwest;" parent="l0dRIvrW9T533fnr_r0f-16" vertex="1">
          <mxGeometry y="60" width="400" height="8" as="geometry" />
        </mxCell>
        <mxCell id="l0dRIvrW9T533fnr_r0f-19" value="+ initialize() : void&#xa;+ dashboardButtonClicked(event : ActionEvent) : void&#xa;- switchToDashboardScene(event : ActionEvent) : void&#xa;+ changeToSecurityCheck(event : ActionEvent) : void&#xa;- switchToAnswerSecurityScene(event : ActionEvent) : void&#xa;&#xa;&#xa;" style="text;align=left;verticalAlign=top;spacingLeft=4;spacingRight=4;overflow=hidden;rotatable=0;points=[[0,0.5],[1,0.5]];portConstraint=eastwest;" parent="l0dRIvrW9T533fnr_r0f-16" vertex="1">
          <mxGeometry y="68" width="400" height="82" as="geometry" />
        </mxCell>
        <mxCell id="l0dRIvrW9T533fnr_r0f-20" value="IfAccountExists" style="swimlane;fontStyle=2;align=center;verticalAlign=top;childLayout=stackLayout;horizontal=1;startSize=26;horizontalStack=0;resizeParent=1;resizeLast=0;collapsible=1;marginBottom=0;rounded=0;shadow=0;strokeWidth=1;" parent="WIyWlLk6GJQsqaUBKTNV-1" vertex="1">
          <mxGeometry x="1920" y="93" width="450" height="100" as="geometry">
            <mxRectangle x="230" y="140" width="160" height="26" as="alternateBounds" />
          </mxGeometry>
        </mxCell>
        <mxCell id="l0dRIvrW9T533fnr_r0f-21" value="- Username_Pattern : String&#xa;&#xa;&#xa;" style="text;align=left;verticalAlign=top;spacingLeft=4;spacingRight=4;overflow=hidden;rotatable=0;points=[[0,0.5],[1,0.5]];portConstraint=eastwest;" parent="l0dRIvrW9T533fnr_r0f-20" vertex="1">
          <mxGeometry y="26" width="450" height="24" as="geometry" />
        </mxCell>
        <mxCell id="l0dRIvrW9T533fnr_r0f-22" value="" style="line;html=1;strokeWidth=1;align=left;verticalAlign=middle;spacingTop=-1;spacingLeft=3;spacingRight=3;rotatable=0;labelPosition=right;points=[];portConstraint=eastwest;" parent="l0dRIvrW9T533fnr_r0f-20" vertex="1">
          <mxGeometry y="50" width="450" height="8" as="geometry" />
        </mxCell>
        <mxCell id="l0dRIvrW9T533fnr_r0f-23" value="+ checkIfAccExists(usernameInput : String) : boolean&#xa;+ parseFileForUsername(filename : String, usernameSearched : String): boolean&#xa;&#xa;&#xa;" style="text;align=left;verticalAlign=top;spacingLeft=4;spacingRight=4;overflow=hidden;rotatable=0;points=[[0,0.5],[1,0.5]];portConstraint=eastwest;" parent="l0dRIvrW9T533fnr_r0f-20" vertex="1">
          <mxGeometry y="58" width="450" height="42" as="geometry" />
        </mxCell>
        <mxCell id="l0dRIvrW9T533fnr_r0f-25" value="ReadUserCredential" style="swimlane;fontStyle=2;align=center;verticalAlign=top;childLayout=stackLayout;horizontal=1;startSize=26;horizontalStack=0;resizeParent=1;resizeLast=0;collapsible=1;marginBottom=0;rounded=0;shadow=0;strokeWidth=1;" parent="WIyWlLk6GJQsqaUBKTNV-1" vertex="1">
          <mxGeometry x="1920" y="690" width="580" height="170" as="geometry">
            <mxRectangle x="230" y="140" width="160" height="26" as="alternateBounds" />
          </mxGeometry>
        </mxCell>
        <mxCell id="l0dRIvrW9T533fnr_r0f-26" value="- UserIDPattern : String&#xa;- Nickname_Pattern : String&#xa;- Username_Pattern : String&#xa;- Password_Pattern : String&#xa;- Note_Pattern : String&#xa;&#xa;&#xa;&#xa;&#xa;" style="text;align=left;verticalAlign=top;spacingLeft=4;spacingRight=4;overflow=hidden;rotatable=0;points=[[0,0.5],[1,0.5]];portConstraint=eastwest;" parent="l0dRIvrW9T533fnr_r0f-25" vertex="1">
          <mxGeometry y="26" width="580" height="84" as="geometry" />
        </mxCell>
        <mxCell id="l0dRIvrW9T533fnr_r0f-27" value="" style="line;html=1;strokeWidth=1;align=left;verticalAlign=middle;spacingTop=-1;spacingLeft=3;spacingRight=3;rotatable=0;labelPosition=right;points=[];portConstraint=eastwest;" parent="l0dRIvrW9T533fnr_r0f-25" vertex="1">
          <mxGeometry y="110" width="580" height="8" as="geometry" />
        </mxCell>
        <mxCell id="l0dRIvrW9T533fnr_r0f-28" value="+ readCredentials(filename : String, userIDSearched : String, nicknameSearched : String) : boolean&#xa;+ parseFile(filename : String, userIDSearched : String, nicknameSearched : String) : List&lt;String&gt;&#xa;+ parseFileForUser(filename : String, userIDSearched  : String) : List&lt;CredentialDetails&gt;&#xa;&#xa;&#xa;&#xa;&#xa;" style="text;align=left;verticalAlign=top;spacingLeft=4;spacingRight=4;overflow=hidden;rotatable=0;points=[[0,0.5],[1,0.5]];portConstraint=eastwest;" parent="l0dRIvrW9T533fnr_r0f-25" vertex="1">
          <mxGeometry y="118" width="580" height="42" as="geometry" />
        </mxCell>
        <mxCell id="l0dRIvrW9T533fnr_r0f-29" value="LoginAuthenticationForTextFile" style="swimlane;fontStyle=2;align=center;verticalAlign=top;childLayout=stackLayout;horizontal=1;startSize=26;horizontalStack=0;resizeParent=1;resizeLast=0;collapsible=1;marginBottom=0;rounded=0;shadow=0;strokeWidth=1;" parent="WIyWlLk6GJQsqaUBKTNV-1" vertex="1">
          <mxGeometry x="180" y="90" width="580" height="180" as="geometry">
            <mxRectangle x="230" y="140" width="160" height="26" as="alternateBounds" />
          </mxGeometry>
        </mxCell>
        <mxCell id="l0dRIvrW9T533fnr_r0f-30" value="- username_pattern : String&#xa;- password_pattern : String&#xa;- key_pattern : String&#xa;- question1_pattern : String&#xa;- question2_pattern : String&#xa;- answer1_pattern : String&#xa;- answer1_pattern : String&#xa;&#xa;&#xa;&#xa;&#xa;" style="text;align=left;verticalAlign=top;spacingLeft=4;spacingRight=4;overflow=hidden;rotatable=0;points=[[0,0.5],[1,0.5]];portConstraint=eastwest;" parent="l0dRIvrW9T533fnr_r0f-29" vertex="1">
          <mxGeometry y="26" width="580" height="104" as="geometry" />
        </mxCell>
        <mxCell id="l0dRIvrW9T533fnr_r0f-31" value="" style="line;html=1;strokeWidth=1;align=left;verticalAlign=middle;spacingTop=-1;spacingLeft=3;spacingRight=3;rotatable=0;labelPosition=right;points=[];portConstraint=eastwest;" parent="l0dRIvrW9T533fnr_r0f-29" vertex="1">
          <mxGeometry y="130" width="580" height="8" as="geometry" />
        </mxCell>
        <mxCell id="l0dRIvrW9T533fnr_r0f-32" value="+ AuthenticationForTextFile(usernameInput : String, passwordInput : String) : boolean&#xa;+ parseFile(fileName : String, usernameSearched : String) : List&lt;String&gt;&#xa;&#xa;&#xa;&#xa;&#xa;&#xa;" style="text;align=left;verticalAlign=top;spacingLeft=4;spacingRight=4;overflow=hidden;rotatable=0;points=[[0,0.5],[1,0.5]];portConstraint=eastwest;" parent="l0dRIvrW9T533fnr_r0f-29" vertex="1">
          <mxGeometry y="138" width="580" height="42" as="geometry" />
        </mxCell>
        <mxCell id="l0dRIvrW9T533fnr_r0f-33" value="PasswordChangeController" style="swimlane;fontStyle=2;align=center;verticalAlign=top;childLayout=stackLayout;horizontal=1;startSize=26;horizontalStack=0;resizeParent=1;resizeLast=0;collapsible=1;marginBottom=0;rounded=0;shadow=0;strokeWidth=1;" parent="WIyWlLk6GJQsqaUBKTNV-1" vertex="1">
          <mxGeometry x="1390" y="1032" width="400" height="150" as="geometry">
            <mxRectangle x="230" y="140" width="160" height="26" as="alternateBounds" />
          </mxGeometry>
        </mxCell>
        <mxCell id="l0dRIvrW9T533fnr_r0f-34" value="- username : TextField&#xa;- oldPassword : PasswordField&#xa;- newPassword : PasswordField&#xa;- PassChangeResult : Label&#xa;&#xa;&#xa;&#xa;" style="text;align=left;verticalAlign=top;spacingLeft=4;spacingRight=4;overflow=hidden;rotatable=0;points=[[0,0.5],[1,0.5]];portConstraint=eastwest;" parent="l0dRIvrW9T533fnr_r0f-33" vertex="1">
          <mxGeometry y="26" width="400" height="64" as="geometry" />
        </mxCell>
        <mxCell id="l0dRIvrW9T533fnr_r0f-35" value="" style="line;html=1;strokeWidth=1;align=left;verticalAlign=middle;spacingTop=-1;spacingLeft=3;spacingRight=3;rotatable=0;labelPosition=right;points=[];portConstraint=eastwest;" parent="l0dRIvrW9T533fnr_r0f-33" vertex="1">
          <mxGeometry y="90" width="400" height="8" as="geometry" />
        </mxCell>
        <mxCell id="l0dRIvrW9T533fnr_r0f-36" value="+ PasswordChangeButtonClicked(event : ActionEvent) : void&#xa;+ BackToDashClicked(event : ActionEvent) : void&#xa;- switchToDashboardScene(event : ActionEvent) : void" style="text;align=left;verticalAlign=top;spacingLeft=4;spacingRight=4;overflow=hidden;rotatable=0;points=[[0,0.5],[1,0.5]];portConstraint=eastwest;" parent="l0dRIvrW9T533fnr_r0f-33" vertex="1">
          <mxGeometry y="98" width="400" height="52" as="geometry" />
        </mxCell>
        <mxCell id="l0dRIvrW9T533fnr_r0f-37" value="PasswordEncryption" style="swimlane;fontStyle=2;align=center;verticalAlign=top;childLayout=stackLayout;horizontal=1;startSize=26;horizontalStack=0;resizeParent=1;resizeLast=0;collapsible=1;marginBottom=0;rounded=0;shadow=0;strokeWidth=1;" parent="WIyWlLk6GJQsqaUBKTNV-1" vertex="1">
          <mxGeometry x="1410" y="342.5" width="400" height="125" as="geometry">
            <mxRectangle x="230" y="140" width="160" height="26" as="alternateBounds" />
          </mxGeometry>
        </mxCell>
        <mxCell id="l0dRIvrW9T533fnr_r0f-38" value="- encryptedText : String&#xa;- key : String" style="text;align=left;verticalAlign=top;spacingLeft=4;spacingRight=4;overflow=hidden;rotatable=0;points=[[0,0.5],[1,0.5]];portConstraint=eastwest;" parent="l0dRIvrW9T533fnr_r0f-37" vertex="1">
          <mxGeometry y="26" width="400" height="34" as="geometry" />
        </mxCell>
        <mxCell id="l0dRIvrW9T533fnr_r0f-39" value="" style="line;html=1;strokeWidth=1;align=left;verticalAlign=middle;spacingTop=-1;spacingLeft=3;spacingRight=3;rotatable=0;labelPosition=right;points=[];portConstraint=eastwest;" parent="l0dRIvrW9T533fnr_r0f-37" vertex="1">
          <mxGeometry y="60" width="400" height="8" as="geometry" />
        </mxCell>
        <mxCell id="l0dRIvrW9T533fnr_r0f-40" value="+ EncryptionResult(plainText : String) : encryptPassword&#xa;+ getEncryptedText() : String&#xa;+ getKey() : String&#xa;&#xa;" style="text;align=left;verticalAlign=top;spacingLeft=4;spacingRight=4;overflow=hidden;rotatable=0;points=[[0,0.5],[1,0.5]];portConstraint=eastwest;" parent="l0dRIvrW9T533fnr_r0f-37" vertex="1">
          <mxGeometry y="68" width="400" height="52" as="geometry" />
        </mxCell>
        <mxCell id="l0dRIvrW9T533fnr_r0f-42" value="PasswordDecryption" style="swimlane;fontStyle=2;align=center;verticalAlign=top;childLayout=stackLayout;horizontal=1;startSize=26;horizontalStack=0;resizeParent=1;resizeLast=0;collapsible=1;marginBottom=0;rounded=0;shadow=0;strokeWidth=1;" parent="WIyWlLk6GJQsqaUBKTNV-1" vertex="1">
          <mxGeometry x="1930" y="510" width="400" height="100" as="geometry">
            <mxRectangle x="230" y="140" width="160" height="26" as="alternateBounds" />
          </mxGeometry>
        </mxCell>
        <mxCell id="l0dRIvrW9T533fnr_r0f-43" value="&#xa;" style="text;align=left;verticalAlign=top;spacingLeft=4;spacingRight=4;overflow=hidden;rotatable=0;points=[[0,0.5],[1,0.5]];portConstraint=eastwest;" parent="l0dRIvrW9T533fnr_r0f-42" vertex="1">
          <mxGeometry y="26" width="400" height="34" as="geometry" />
        </mxCell>
        <mxCell id="l0dRIvrW9T533fnr_r0f-44" value="" style="line;html=1;strokeWidth=1;align=left;verticalAlign=middle;spacingTop=-1;spacingLeft=3;spacingRight=3;rotatable=0;labelPosition=right;points=[];portConstraint=eastwest;" parent="l0dRIvrW9T533fnr_r0f-42" vertex="1">
          <mxGeometry y="60" width="400" height="8" as="geometry" />
        </mxCell>
        <mxCell id="l0dRIvrW9T533fnr_r0f-45" value="+ decryptPassword(plainText : String) : String&#xa;&#xa;" style="text;align=left;verticalAlign=top;spacingLeft=4;spacingRight=4;overflow=hidden;rotatable=0;points=[[0,0.5],[1,0.5]];portConstraint=eastwest;" parent="l0dRIvrW9T533fnr_r0f-42" vertex="1">
          <mxGeometry y="68" width="400" height="32" as="geometry" />
        </mxCell>
        <mxCell id="l0dRIvrW9T533fnr_r0f-46" value="PasswordChanger" style="swimlane;fontStyle=2;align=center;verticalAlign=top;childLayout=stackLayout;horizontal=1;startSize=26;horizontalStack=0;resizeParent=1;resizeLast=0;collapsible=1;marginBottom=0;rounded=0;shadow=0;strokeWidth=1;" parent="WIyWlLk6GJQsqaUBKTNV-1" vertex="1">
          <mxGeometry x="1300" y="1270" width="520" height="120" as="geometry">
            <mxRectangle x="230" y="140" width="160" height="26" as="alternateBounds" />
          </mxGeometry>
        </mxCell>
        <mxCell id="l0dRIvrW9T533fnr_r0f-47" value="- username_pattern : String&#xa;- password_pattern : String&#xa;- key_pattern : String" style="text;align=left;verticalAlign=top;spacingLeft=4;spacingRight=4;overflow=hidden;rotatable=0;points=[[0,0.5],[1,0.5]];portConstraint=eastwest;" parent="l0dRIvrW9T533fnr_r0f-46" vertex="1">
          <mxGeometry y="26" width="520" height="44" as="geometry" />
        </mxCell>
        <mxCell id="l0dRIvrW9T533fnr_r0f-48" value="" style="line;html=1;strokeWidth=1;align=left;verticalAlign=middle;spacingTop=-1;spacingLeft=3;spacingRight=3;rotatable=0;labelPosition=right;points=[];portConstraint=eastwest;" parent="l0dRIvrW9T533fnr_r0f-46" vertex="1">
          <mxGeometry y="70" width="520" height="8" as="geometry" />
        </mxCell>
        <mxCell id="l0dRIvrW9T533fnr_r0f-49" value="+ PasswordChange(username : String, oldPassword : String, newPassword : String) : boolean&#xa;+ replaceLine(filename : String, oldLine : String, newLine : String) : boolean&#xa;" style="text;align=left;verticalAlign=top;spacingLeft=4;spacingRight=4;overflow=hidden;rotatable=0;points=[[0,0.5],[1,0.5]];portConstraint=eastwest;" parent="l0dRIvrW9T533fnr_r0f-46" vertex="1">
          <mxGeometry y="78" width="520" height="42" as="geometry" />
        </mxCell>
        <mxCell id="l0dRIvrW9T533fnr_r0f-50" value="SecurityEncryption" style="swimlane;fontStyle=2;align=center;verticalAlign=top;childLayout=stackLayout;horizontal=1;startSize=26;horizontalStack=0;resizeParent=1;resizeLast=0;collapsible=1;marginBottom=0;rounded=0;shadow=0;strokeWidth=1;" parent="WIyWlLk6GJQsqaUBKTNV-1" vertex="1">
          <mxGeometry x="1875" y="350" width="400" height="110" as="geometry">
            <mxRectangle x="230" y="140" width="160" height="26" as="alternateBounds" />
          </mxGeometry>
        </mxCell>
        <mxCell id="l0dRIvrW9T533fnr_r0f-51" value="- algorithm : String&#xa;- secret_key : String" style="text;align=left;verticalAlign=top;spacingLeft=4;spacingRight=4;overflow=hidden;rotatable=0;points=[[0,0.5],[1,0.5]];portConstraint=eastwest;" parent="l0dRIvrW9T533fnr_r0f-50" vertex="1">
          <mxGeometry y="26" width="400" height="34" as="geometry" />
        </mxCell>
        <mxCell id="l0dRIvrW9T533fnr_r0f-52" value="" style="line;html=1;strokeWidth=1;align=left;verticalAlign=middle;spacingTop=-1;spacingLeft=3;spacingRight=3;rotatable=0;labelPosition=right;points=[];portConstraint=eastwest;" parent="l0dRIvrW9T533fnr_r0f-50" vertex="1">
          <mxGeometry y="60" width="400" height="8" as="geometry" />
        </mxCell>
        <mxCell id="l0dRIvrW9T533fnr_r0f-53" value="+ encryptAnswer(answer : String) : String&#xa;+ decryptAnswer(encryptedAnswer: String) : String&#xa;&#xa;&#xa;" style="text;align=left;verticalAlign=top;spacingLeft=4;spacingRight=4;overflow=hidden;rotatable=0;points=[[0,0.5],[1,0.5]];portConstraint=eastwest;" parent="l0dRIvrW9T533fnr_r0f-50" vertex="1">
          <mxGeometry y="68" width="400" height="42" as="geometry" />
        </mxCell>
        <mxCell id="l0dRIvrW9T533fnr_r0f-54" value="storeCredentials" style="swimlane;fontStyle=2;align=center;verticalAlign=top;childLayout=stackLayout;horizontal=1;startSize=26;horizontalStack=0;resizeParent=1;resizeLast=0;collapsible=1;marginBottom=0;rounded=0;shadow=0;strokeWidth=1;" parent="WIyWlLk6GJQsqaUBKTNV-1" vertex="1">
          <mxGeometry x="2390" y="190" width="430" height="270" as="geometry">
            <mxRectangle x="230" y="140" width="160" height="26" as="alternateBounds" />
          </mxGeometry>
        </mxCell>
        <mxCell id="l0dRIvrW9T533fnr_r0f-55" value="- fileName : String&#xa;tokens : String[]&#xa;updated : string" style="text;align=left;verticalAlign=top;spacingLeft=4;spacingRight=4;overflow=hidden;rotatable=0;points=[[0,0.5],[1,0.5]];portConstraint=eastwest;" parent="l0dRIvrW9T533fnr_r0f-54" vertex="1">
          <mxGeometry y="26" width="430" height="54" as="geometry" />
        </mxCell>
        <mxCell id="l0dRIvrW9T533fnr_r0f-56" value="" style="line;html=1;strokeWidth=1;align=left;verticalAlign=middle;spacingTop=-1;spacingLeft=3;spacingRight=3;rotatable=0;labelPosition=right;points=[];portConstraint=eastwest;" parent="l0dRIvrW9T533fnr_r0f-54" vertex="1">
          <mxGeometry y="80" width="430" height="8" as="geometry" />
        </mxCell>
        <mxCell id="l0dRIvrW9T533fnr_r0f-57" value="+ storeCredentials()&#xa;+ storeCredentials(file : String, password : String, user : String, key : &#xa;String, question1 : String, question2 : String, answer1 : String, answer2 : String)&#xa;+ storeCredentials(file : String)&#xa;+ printFile() : void&#xa;- createFile() : boolean&#xa;- getText() : String&#xa;- writeUpdate : boolean&#xa;+ storePass(password : String) : boolean&#xa;+ storeUser(user : String) : boolean&#xa;+ storeKey(key : String) : boolean&#xa;+ checkPasswordStrength(password : String) : String&#xa;" style="text;align=left;verticalAlign=top;spacingLeft=4;spacingRight=4;overflow=hidden;rotatable=0;points=[[0,0.5],[1,0.5]];portConstraint=eastwest;" parent="l0dRIvrW9T533fnr_r0f-54" vertex="1">
          <mxGeometry y="88" width="430" height="182" as="geometry" />
        </mxCell>
        <mxCell id="l0dRIvrW9T533fnr_r0f-58" value="UsernameEncryption" style="swimlane;fontStyle=2;align=center;verticalAlign=top;childLayout=stackLayout;horizontal=1;startSize=26;horizontalStack=0;resizeParent=1;resizeLast=0;collapsible=1;marginBottom=0;rounded=0;shadow=0;strokeWidth=1;" parent="WIyWlLk6GJQsqaUBKTNV-1" vertex="1">
          <mxGeometry x="370" y="348" width="400" height="100" as="geometry">
            <mxRectangle x="230" y="140" width="160" height="26" as="alternateBounds" />
          </mxGeometry>
        </mxCell>
        <mxCell id="l0dRIvrW9T533fnr_r0f-59" value="- encoded_ key : String" style="text;align=left;verticalAlign=top;spacingLeft=4;spacingRight=4;overflow=hidden;rotatable=0;points=[[0,0.5],[1,0.5]];portConstraint=eastwest;" parent="l0dRIvrW9T533fnr_r0f-58" vertex="1">
          <mxGeometry y="26" width="400" height="24" as="geometry" />
        </mxCell>
        <mxCell id="l0dRIvrW9T533fnr_r0f-60" value="" style="line;html=1;strokeWidth=1;align=left;verticalAlign=middle;spacingTop=-1;spacingLeft=3;spacingRight=3;rotatable=0;labelPosition=right;points=[];portConstraint=eastwest;" parent="l0dRIvrW9T533fnr_r0f-58" vertex="1">
          <mxGeometry y="50" width="400" height="8" as="geometry" />
        </mxCell>
        <mxCell id="l0dRIvrW9T533fnr_r0f-61" value="+ EncryptedUsername(usernameInput : String) : String&#xa;+ printEncodedKey() : void&#xa;&#xa;&#xa;&#xa;" style="text;align=left;verticalAlign=top;spacingLeft=4;spacingRight=4;overflow=hidden;rotatable=0;points=[[0,0.5],[1,0.5]];portConstraint=eastwest;" parent="l0dRIvrW9T533fnr_r0f-58" vertex="1">
          <mxGeometry y="58" width="400" height="42" as="geometry" />
        </mxCell>
        <mxCell id="l0dRIvrW9T533fnr_r0f-62" value="Credential" style="swimlane;fontStyle=2;align=center;verticalAlign=top;childLayout=stackLayout;horizontal=1;startSize=26;horizontalStack=0;resizeParent=1;resizeLast=0;collapsible=1;marginBottom=0;rounded=0;shadow=0;strokeWidth=1;" parent="WIyWlLk6GJQsqaUBKTNV-1" vertex="1">
          <mxGeometry x="2460" y="480" width="540" height="230" as="geometry">
            <mxRectangle x="230" y="140" width="160" height="26" as="alternateBounds" />
          </mxGeometry>
        </mxCell>
        <mxCell id="l0dRIvrW9T533fnr_r0f-63" value="- UserIDPattern : String&#xa;- Nickname_Pattern : String&#xa;- Username_Pattern : String&#xa;- Password_Pattern : String&#xa;- Note_Pattern : String&#xa;- UserID : String&#xa;- Nickname : String&#xa;- Username : String&#xa;- Password: String&#xa;- Note: String&#xa;" style="text;align=left;verticalAlign=top;spacingLeft=4;spacingRight=4;overflow=hidden;rotatable=0;points=[[0,0.5],[1,0.5]];portConstraint=eastwest;" parent="l0dRIvrW9T533fnr_r0f-62" vertex="1">
          <mxGeometry y="26" width="540" height="154" as="geometry" />
        </mxCell>
        <mxCell id="l0dRIvrW9T533fnr_r0f-64" value="" style="line;html=1;strokeWidth=1;align=left;verticalAlign=middle;spacingTop=-1;spacingLeft=3;spacingRight=3;rotatable=0;labelPosition=right;points=[];portConstraint=eastwest;" parent="l0dRIvrW9T533fnr_r0f-62" vertex="1">
          <mxGeometry y="180" width="540" height="8" as="geometry" />
        </mxCell>
        <mxCell id="l0dRIvrW9T533fnr_r0f-65" value="+ Credential(userId : String, nickname : string, username : string, password: String, note : String&#xa;+ saveToFile(file : String) : void" style="text;align=left;verticalAlign=top;spacingLeft=4;spacingRight=4;overflow=hidden;rotatable=0;points=[[0,0.5],[1,0.5]];portConstraint=eastwest;" parent="l0dRIvrW9T533fnr_r0f-62" vertex="1">
          <mxGeometry y="188" width="540" height="42" as="geometry" />
        </mxCell>
        <mxCell id="l0dRIvrW9T533fnr_r0f-67" value="PasswordEncryptionForExistingLogin" style="swimlane;fontStyle=2;align=center;verticalAlign=top;childLayout=stackLayout;horizontal=1;startSize=26;horizontalStack=0;resizeParent=1;resizeLast=0;collapsible=1;marginBottom=0;rounded=0;shadow=0;strokeWidth=1;" parent="WIyWlLk6GJQsqaUBKTNV-1" vertex="1">
          <mxGeometry x="325" y="520" width="440" height="100" as="geometry">
            <mxRectangle x="230" y="140" width="160" height="26" as="alternateBounds" />
          </mxGeometry>
        </mxCell>
        <mxCell id="l0dRIvrW9T533fnr_r0f-69" value="" style="line;html=1;strokeWidth=1;align=left;verticalAlign=middle;spacingTop=-1;spacingLeft=3;spacingRight=3;rotatable=0;labelPosition=right;points=[];portConstraint=eastwest;" parent="l0dRIvrW9T533fnr_r0f-67" vertex="1">
          <mxGeometry y="26" width="440" height="34" as="geometry" />
        </mxCell>
        <mxCell id="l0dRIvrW9T533fnr_r0f-70" value="+ EncryptedLoginPassword(usernameInput : String, encodedKey : String) : string&#xa;&#xa;&#xa;&#xa;" style="text;align=left;verticalAlign=top;spacingLeft=4;spacingRight=4;overflow=hidden;rotatable=0;points=[[0,0.5],[1,0.5]];portConstraint=eastwest;" parent="l0dRIvrW9T533fnr_r0f-67" vertex="1">
          <mxGeometry y="60" width="440" height="30" as="geometry" />
        </mxCell>
        <mxCell id="OhwirgPrC2YLUbsvfYcL-6" value="" style="endArrow=block;startArrow=block;endFill=1;startFill=1;html=1;rounded=0;exitX=0;exitY=0;exitDx=0;exitDy=0;entryX=0.998;entryY=1.028;entryDx=0;entryDy=0;entryPerimeter=0;" parent="WIyWlLk6GJQsqaUBKTNV-1" source="l0dRIvrW9T533fnr_r0f-4" target="zkfFHV4jXpPFQw0GAbJ--5" edge="1">
          <mxGeometry width="160" relative="1" as="geometry">
            <mxPoint x="1770" y="570" as="sourcePoint" />
            <mxPoint x="1930" y="570" as="targetPoint" />
          </mxGeometry>
        </mxCell>
        <mxCell id="OhwirgPrC2YLUbsvfYcL-7" value="" style="endArrow=block;startArrow=block;endFill=1;startFill=1;html=1;rounded=0;exitX=1;exitY=0.5;exitDx=0;exitDy=0;entryX=0;entryY=0.589;entryDx=0;entryDy=0;entryPerimeter=0;" parent="WIyWlLk6GJQsqaUBKTNV-1" source="zkfFHV4jXpPFQw0GAbJ--1" target="l0dRIvrW9T533fnr_r0f-1" edge="1">
          <mxGeometry width="160" relative="1" as="geometry">
            <mxPoint x="1770" y="570" as="sourcePoint" />
            <mxPoint x="1930" y="570" as="targetPoint" />
          </mxGeometry>
        </mxCell>
        <mxCell id="OhwirgPrC2YLUbsvfYcL-8" value="1" style="text;html=1;align=center;verticalAlign=middle;resizable=0;points=[];autosize=1;strokeColor=none;fillColor=none;" parent="WIyWlLk6GJQsqaUBKTNV-1" vertex="1">
          <mxGeometry x="1295" y="258" width="30" height="30" as="geometry" />
        </mxCell>
        <mxCell id="OhwirgPrC2YLUbsvfYcL-9" value="1" style="text;html=1;align=center;verticalAlign=middle;resizable=0;points=[];autosize=1;strokeColor=none;fillColor=none;" parent="WIyWlLk6GJQsqaUBKTNV-1" vertex="1">
          <mxGeometry x="1395" y="500" width="30" height="30" as="geometry" />
        </mxCell>
        <mxCell id="OhwirgPrC2YLUbsvfYcL-10" value="1" style="text;html=1;align=center;verticalAlign=middle;resizable=0;points=[];autosize=1;strokeColor=none;fillColor=none;" parent="WIyWlLk6GJQsqaUBKTNV-1" vertex="1">
          <mxGeometry x="1290" y="128" width="30" height="30" as="geometry" />
        </mxCell>
        <mxCell id="OhwirgPrC2YLUbsvfYcL-11" value="1" style="text;html=1;align=center;verticalAlign=middle;resizable=0;points=[];autosize=1;strokeColor=none;fillColor=none;" parent="WIyWlLk6GJQsqaUBKTNV-1" vertex="1">
          <mxGeometry x="1385" y="128" width="30" height="30" as="geometry" />
        </mxCell>
        <mxCell id="OhwirgPrC2YLUbsvfYcL-12" value="" style="endArrow=block;startArrow=block;endFill=1;startFill=1;html=1;rounded=0;exitX=1;exitY=0.355;exitDx=0;exitDy=0;exitPerimeter=0;entryX=0.833;entryY=1.065;entryDx=0;entryDy=0;entryPerimeter=0;" parent="WIyWlLk6GJQsqaUBKTNV-1" source="l0dRIvrW9T533fnr_r0f-11" target="OhwirgPrC2YLUbsvfYcL-23" edge="1">
          <mxGeometry width="160" relative="1" as="geometry">
            <mxPoint x="1760" y="702" as="sourcePoint" />
            <mxPoint x="1920" y="702" as="targetPoint" />
          </mxGeometry>
        </mxCell>
        <mxCell id="OhwirgPrC2YLUbsvfYcL-13" value="" style="endArrow=block;startArrow=block;endFill=1;startFill=1;html=1;rounded=0;entryX=-0.009;entryY=0.237;entryDx=0;entryDy=0;entryPerimeter=0;" parent="WIyWlLk6GJQsqaUBKTNV-1" source="l0dRIvrW9T533fnr_r0f-13" target="l0dRIvrW9T533fnr_r0f-7" edge="1">
          <mxGeometry width="160" relative="1" as="geometry">
            <mxPoint x="1760" y="702" as="sourcePoint" />
            <mxPoint x="1920" y="702" as="targetPoint" />
          </mxGeometry>
        </mxCell>
        <mxCell id="OhwirgPrC2YLUbsvfYcL-14" value="" style="endArrow=block;startArrow=block;endFill=1;startFill=1;html=1;rounded=0;exitX=0.558;exitY=-0.007;exitDx=0;exitDy=0;exitPerimeter=0;entryX=0.603;entryY=0.991;entryDx=0;entryDy=0;entryPerimeter=0;" parent="WIyWlLk6GJQsqaUBKTNV-1" source="l0dRIvrW9T533fnr_r0f-33" target="l0dRIvrW9T533fnr_r0f-7" edge="1">
          <mxGeometry width="160" relative="1" as="geometry">
            <mxPoint x="1760" y="702" as="sourcePoint" />
            <mxPoint x="1920" y="702" as="targetPoint" />
          </mxGeometry>
        </mxCell>
        <mxCell id="OhwirgPrC2YLUbsvfYcL-15" value="" style="endArrow=block;startArrow=block;endFill=1;startFill=1;html=1;rounded=0;exitX=1;exitY=0.5;exitDx=0;exitDy=0;entryX=-0.009;entryY=0.996;entryDx=0;entryDy=0;entryPerimeter=0;" parent="WIyWlLk6GJQsqaUBKTNV-1" source="l0dRIvrW9T533fnr_r0f-17" target="l0dRIvrW9T533fnr_r0f-7" edge="1">
          <mxGeometry width="160" relative="1" as="geometry">
            <mxPoint x="1760" y="702" as="sourcePoint" />
            <mxPoint x="1920" y="702" as="targetPoint" />
          </mxGeometry>
        </mxCell>
        <mxCell id="OhwirgPrC2YLUbsvfYcL-16" value="1" style="text;html=1;align=center;verticalAlign=middle;resizable=0;points=[];autosize=1;strokeColor=none;fillColor=none;" parent="WIyWlLk6GJQsqaUBKTNV-1" vertex="1">
          <mxGeometry x="1615" y="970" width="30" height="30" as="geometry" />
        </mxCell>
        <mxCell id="OhwirgPrC2YLUbsvfYcL-17" value="1" style="text;html=1;align=center;verticalAlign=middle;resizable=0;points=[];autosize=1;strokeColor=none;fillColor=none;" parent="WIyWlLk6GJQsqaUBKTNV-1" vertex="1">
          <mxGeometry x="1615" y="1000" width="30" height="30" as="geometry" />
        </mxCell>
        <mxCell id="OhwirgPrC2YLUbsvfYcL-18" value="1" style="text;html=1;align=center;verticalAlign=middle;resizable=0;points=[];autosize=1;strokeColor=none;fillColor=none;" parent="WIyWlLk6GJQsqaUBKTNV-1" vertex="1">
          <mxGeometry x="1285" y="1050" width="30" height="30" as="geometry" />
        </mxCell>
        <mxCell id="OhwirgPrC2YLUbsvfYcL-19" value="1" style="text;html=1;align=center;verticalAlign=middle;resizable=0;points=[];autosize=1;strokeColor=none;fillColor=none;" parent="WIyWlLk6GJQsqaUBKTNV-1" vertex="1">
          <mxGeometry x="1385" y="980" width="30" height="30" as="geometry" />
        </mxCell>
        <mxCell id="OhwirgPrC2YLUbsvfYcL-20" value="1" style="text;html=1;align=center;verticalAlign=middle;resizable=0;points=[];autosize=1;strokeColor=none;fillColor=none;" parent="WIyWlLk6GJQsqaUBKTNV-1" vertex="1">
          <mxGeometry x="1285" y="760" width="30" height="30" as="geometry" />
        </mxCell>
        <mxCell id="OhwirgPrC2YLUbsvfYcL-21" value="1" style="text;html=1;align=center;verticalAlign=middle;resizable=0;points=[];autosize=1;strokeColor=none;fillColor=none;" parent="WIyWlLk6GJQsqaUBKTNV-1" vertex="1">
          <mxGeometry x="1370" y="760" width="30" height="30" as="geometry" />
        </mxCell>
        <mxCell id="OhwirgPrC2YLUbsvfYcL-22" value="1" style="text;html=1;align=center;verticalAlign=middle;resizable=0;points=[];autosize=1;strokeColor=none;fillColor=none;" parent="WIyWlLk6GJQsqaUBKTNV-1" vertex="1">
          <mxGeometry x="1285" y="580" width="30" height="30" as="geometry" />
        </mxCell>
        <mxCell id="OhwirgPrC2YLUbsvfYcL-23" value="1" style="text;html=1;align=center;verticalAlign=middle;resizable=0;points=[];autosize=1;strokeColor=none;fillColor=none;" parent="WIyWlLk6GJQsqaUBKTNV-1" vertex="1">
          <mxGeometry x="1375" y="580" width="30" height="30" as="geometry" />
        </mxCell>
        <mxCell id="OhwirgPrC2YLUbsvfYcL-25" value="" style="endArrow=open;endFill=1;endSize=12;html=1;rounded=0;exitX=1.005;exitY=0.264;exitDx=0;exitDy=0;exitPerimeter=0;entryX=0.004;entryY=1.019;entryDx=0;entryDy=0;entryPerimeter=0;" parent="WIyWlLk6GJQsqaUBKTNV-1" source="l0dRIvrW9T533fnr_r0f-7" target="l0dRIvrW9T533fnr_r0f-26" edge="1">
          <mxGeometry width="160" relative="1" as="geometry">
            <mxPoint x="1810" y="710" as="sourcePoint" />
            <mxPoint x="1970" y="710" as="targetPoint" />
          </mxGeometry>
        </mxCell>
        <mxCell id="OhwirgPrC2YLUbsvfYcL-26" value="1" style="text;html=1;align=center;verticalAlign=middle;resizable=0;points=[];autosize=1;strokeColor=none;fillColor=none;" parent="WIyWlLk6GJQsqaUBKTNV-1" vertex="1">
          <mxGeometry x="1755" y="770" width="30" height="30" as="geometry" />
        </mxCell>
        <mxCell id="OhwirgPrC2YLUbsvfYcL-27" value="*" style="text;html=1;align=center;verticalAlign=middle;resizable=0;points=[];autosize=1;strokeColor=none;fillColor=none;" parent="WIyWlLk6GJQsqaUBKTNV-1" vertex="1">
          <mxGeometry x="1920" y="747" width="30" height="30" as="geometry" />
        </mxCell>
        <mxCell id="OhwirgPrC2YLUbsvfYcL-28" value="" style="endArrow=open;endFill=1;endSize=12;html=1;rounded=0;entryX=0.009;entryY=0.191;entryDx=0;entryDy=0;entryPerimeter=0;exitX=1;exitY=0.492;exitDx=0;exitDy=0;exitPerimeter=0;" parent="WIyWlLk6GJQsqaUBKTNV-1" source="l0dRIvrW9T533fnr_r0f-1" target="l0dRIvrW9T533fnr_r0f-22" edge="1">
          <mxGeometry width="160" relative="1" as="geometry">
            <mxPoint x="1820" y="150" as="sourcePoint" />
            <mxPoint x="1900" y="150" as="targetPoint" />
          </mxGeometry>
        </mxCell>
        <mxCell id="OhwirgPrC2YLUbsvfYcL-29" value="1" style="text;html=1;align=center;verticalAlign=middle;resizable=0;points=[];autosize=1;strokeColor=none;fillColor=none;" parent="WIyWlLk6GJQsqaUBKTNV-1" vertex="1">
          <mxGeometry x="1805" y="118" width="30" height="30" as="geometry" />
        </mxCell>
        <mxCell id="OhwirgPrC2YLUbsvfYcL-30" value="1" style="text;html=1;align=center;verticalAlign=middle;resizable=0;points=[];autosize=1;strokeColor=none;fillColor=none;" parent="WIyWlLk6GJQsqaUBKTNV-1" vertex="1">
          <mxGeometry x="1885" y="118" width="30" height="30" as="geometry" />
        </mxCell>
        <mxCell id="OhwirgPrC2YLUbsvfYcL-31" value="" style="endArrow=open;endFill=1;endSize=12;html=1;rounded=0;exitX=1;exitY=0.94;exitDx=0;exitDy=0;exitPerimeter=0;entryX=0;entryY=0;entryDx=0;entryDy=0;" parent="WIyWlLk6GJQsqaUBKTNV-1" source="l0dRIvrW9T533fnr_r0f-3" target="l0dRIvrW9T533fnr_r0f-50" edge="1">
          <mxGeometry width="160" relative="1" as="geometry">
            <mxPoint x="1340" y="740" as="sourcePoint" />
            <mxPoint x="1500" y="740" as="targetPoint" />
          </mxGeometry>
        </mxCell>
        <mxCell id="OhwirgPrC2YLUbsvfYcL-32" value="1" style="text;html=1;align=center;verticalAlign=middle;resizable=0;points=[];autosize=1;strokeColor=none;fillColor=none;" parent="WIyWlLk6GJQsqaUBKTNV-1" vertex="1">
          <mxGeometry x="1865" y="310" width="30" height="30" as="geometry" />
        </mxCell>
        <mxCell id="OhwirgPrC2YLUbsvfYcL-34" value="1" style="text;html=1;align=center;verticalAlign=middle;resizable=0;points=[];autosize=1;strokeColor=none;fillColor=none;" parent="WIyWlLk6GJQsqaUBKTNV-1" vertex="1">
          <mxGeometry x="1805" y="250" width="30" height="30" as="geometry" />
        </mxCell>
        <mxCell id="OhwirgPrC2YLUbsvfYcL-35" value="1" style="text;html=1;align=center;verticalAlign=middle;resizable=0;points=[];autosize=1;strokeColor=none;fillColor=none;" parent="WIyWlLk6GJQsqaUBKTNV-1" vertex="1">
          <mxGeometry x="1890" y="760" width="30" height="30" as="geometry" />
        </mxCell>
        <mxCell id="OhwirgPrC2YLUbsvfYcL-36" value="" style="endArrow=open;endFill=1;endSize=12;html=1;rounded=0;exitX=1.008;exitY=0.258;exitDx=0;exitDy=0;exitPerimeter=0;entryX=0;entryY=0.5;entryDx=0;entryDy=0;" parent="WIyWlLk6GJQsqaUBKTNV-1" source="l0dRIvrW9T533fnr_r0f-3" target="l0dRIvrW9T533fnr_r0f-63" edge="1">
          <mxGeometry width="160" relative="1" as="geometry">
            <mxPoint x="1520" y="670" as="sourcePoint" />
            <mxPoint x="1680" y="670" as="targetPoint" />
          </mxGeometry>
        </mxCell>
        <mxCell id="OhwirgPrC2YLUbsvfYcL-37" value="1" style="text;html=1;align=center;verticalAlign=middle;resizable=0;points=[];autosize=1;strokeColor=none;fillColor=none;" parent="WIyWlLk6GJQsqaUBKTNV-1" vertex="1">
          <mxGeometry x="1820" y="208" width="30" height="30" as="geometry" />
        </mxCell>
        <mxCell id="OhwirgPrC2YLUbsvfYcL-38" value="1" style="text;html=1;align=center;verticalAlign=middle;resizable=0;points=[];autosize=1;strokeColor=none;fillColor=none;" parent="WIyWlLk6GJQsqaUBKTNV-1" vertex="1">
          <mxGeometry x="2430" y="538" width="30" height="30" as="geometry" />
        </mxCell>
        <mxCell id="OhwirgPrC2YLUbsvfYcL-39" value="" style="endArrow=open;endFill=1;endSize=12;html=1;rounded=0;exitX=0.997;exitY=0.965;exitDx=0;exitDy=0;exitPerimeter=0;entryX=0;entryY=0.115;entryDx=0;entryDy=0;entryPerimeter=0;" parent="WIyWlLk6GJQsqaUBKTNV-1" source="l0dRIvrW9T533fnr_r0f-1" target="l0dRIvrW9T533fnr_r0f-57" edge="1">
          <mxGeometry width="160" relative="1" as="geometry">
            <mxPoint x="1520" y="500" as="sourcePoint" />
            <mxPoint x="1680" y="500" as="targetPoint" />
          </mxGeometry>
        </mxCell>
        <mxCell id="OhwirgPrC2YLUbsvfYcL-40" value="1" style="text;html=1;align=center;verticalAlign=middle;resizable=0;points=[];autosize=1;strokeColor=none;fillColor=none;" parent="WIyWlLk6GJQsqaUBKTNV-1" vertex="1">
          <mxGeometry x="1815" y="178" width="30" height="30" as="geometry" />
        </mxCell>
        <mxCell id="OhwirgPrC2YLUbsvfYcL-41" value="1" style="text;html=1;align=center;verticalAlign=middle;resizable=0;points=[];autosize=1;strokeColor=none;fillColor=none;" parent="WIyWlLk6GJQsqaUBKTNV-1" vertex="1">
          <mxGeometry x="2355" y="258" width="30" height="30" as="geometry" />
        </mxCell>
        <mxCell id="OhwirgPrC2YLUbsvfYcL-42" value="" style="endArrow=open;endFill=1;endSize=12;html=1;rounded=0;exitX=0.012;exitY=-0.04;exitDx=0;exitDy=0;entryX=1.001;entryY=0.738;entryDx=0;entryDy=0;entryPerimeter=0;exitPerimeter=0;" parent="WIyWlLk6GJQsqaUBKTNV-1" source="zkfFHV4jXpPFQw0GAbJ--5" target="l0dRIvrW9T533fnr_r0f-30" edge="1">
          <mxGeometry width="160" relative="1" as="geometry">
            <mxPoint x="640" y="530" as="sourcePoint" />
            <mxPoint x="800" y="530" as="targetPoint" />
          </mxGeometry>
        </mxCell>
        <mxCell id="OhwirgPrC2YLUbsvfYcL-43" value="1" style="text;html=1;align=center;verticalAlign=middle;resizable=0;points=[];autosize=1;strokeColor=none;fillColor=none;" parent="WIyWlLk6GJQsqaUBKTNV-1" vertex="1">
          <mxGeometry x="865" y="158" width="30" height="30" as="geometry" />
        </mxCell>
        <mxCell id="OhwirgPrC2YLUbsvfYcL-44" value="1" style="text;html=1;align=center;verticalAlign=middle;resizable=0;points=[];autosize=1;strokeColor=none;fillColor=none;" parent="WIyWlLk6GJQsqaUBKTNV-1" vertex="1">
          <mxGeometry x="765" y="158" width="30" height="30" as="geometry" />
        </mxCell>
        <mxCell id="OhwirgPrC2YLUbsvfYcL-45" value="" style="endArrow=open;endFill=1;endSize=12;html=1;rounded=0;entryX=-0.003;entryY=0.908;entryDx=0;entryDy=0;entryPerimeter=0;" parent="WIyWlLk6GJQsqaUBKTNV-1" target="l0dRIvrW9T533fnr_r0f-43" edge="1">
          <mxGeometry width="160" relative="1" as="geometry">
            <mxPoint x="1763" y="567" as="sourcePoint" />
            <mxPoint x="1680" y="620" as="targetPoint" />
          </mxGeometry>
        </mxCell>
        <mxCell id="OhwirgPrC2YLUbsvfYcL-46" value="1" style="text;html=1;align=center;verticalAlign=middle;resizable=0;points=[];autosize=1;strokeColor=none;fillColor=none;" parent="WIyWlLk6GJQsqaUBKTNV-1" vertex="1">
          <mxGeometry x="1755" y="670" width="30" height="30" as="geometry" />
        </mxCell>
        <mxCell id="OhwirgPrC2YLUbsvfYcL-47" value="*" style="text;html=1;align=center;verticalAlign=middle;resizable=0;points=[];autosize=1;strokeColor=none;fillColor=none;" parent="WIyWlLk6GJQsqaUBKTNV-1" vertex="1">
          <mxGeometry x="1895" y="538" width="30" height="30" as="geometry" />
        </mxCell>
        <mxCell id="OhwirgPrC2YLUbsvfYcL-48" value="" style="endArrow=open;endFill=1;endSize=12;html=1;rounded=0;exitX=-0.006;exitY=0.989;exitDx=0;exitDy=0;exitPerimeter=0;entryX=1;entryY=0;entryDx=0;entryDy=0;" parent="WIyWlLk6GJQsqaUBKTNV-1" source="zkfFHV4jXpPFQw0GAbJ--5" target="l0dRIvrW9T533fnr_r0f-58" edge="1">
          <mxGeometry width="160" relative="1" as="geometry">
            <mxPoint x="850" y="630" as="sourcePoint" />
            <mxPoint x="1010" y="630" as="targetPoint" />
          </mxGeometry>
        </mxCell>
        <mxCell id="OhwirgPrC2YLUbsvfYcL-49" value="1" style="text;html=1;align=center;verticalAlign=middle;resizable=0;points=[];autosize=1;strokeColor=none;fillColor=none;" parent="WIyWlLk6GJQsqaUBKTNV-1" vertex="1">
          <mxGeometry x="845" y="258" width="30" height="30" as="geometry" />
        </mxCell>
        <mxCell id="OhwirgPrC2YLUbsvfYcL-50" value="1" style="text;html=1;align=center;verticalAlign=middle;resizable=0;points=[];autosize=1;strokeColor=none;fillColor=none;" parent="WIyWlLk6GJQsqaUBKTNV-1" vertex="1">
          <mxGeometry x="765" y="308" width="30" height="30" as="geometry" />
        </mxCell>
        <mxCell id="OhwirgPrC2YLUbsvfYcL-51" value="" style="endArrow=open;endFill=1;endSize=12;html=1;rounded=0;exitX=0.2;exitY=0.989;exitDx=0;exitDy=0;exitPerimeter=0;entryX=1;entryY=0.5;entryDx=0;entryDy=0;" parent="WIyWlLk6GJQsqaUBKTNV-1" source="zkfFHV4jXpPFQw0GAbJ--5" target="l0dRIvrW9T533fnr_r0f-67" edge="1">
          <mxGeometry width="160" relative="1" as="geometry">
            <mxPoint x="850" y="630" as="sourcePoint" />
            <mxPoint x="1010" y="630" as="targetPoint" />
          </mxGeometry>
        </mxCell>
        <mxCell id="OhwirgPrC2YLUbsvfYcL-52" value="1" style="text;html=1;align=center;verticalAlign=middle;resizable=0;points=[];autosize=1;strokeColor=none;fillColor=none;" parent="WIyWlLk6GJQsqaUBKTNV-1" vertex="1">
          <mxGeometry x="925" y="278" width="30" height="30" as="geometry" />
        </mxCell>
        <mxCell id="OhwirgPrC2YLUbsvfYcL-53" value="1" style="text;html=1;align=center;verticalAlign=middle;resizable=0;points=[];autosize=1;strokeColor=none;fillColor=none;" parent="WIyWlLk6GJQsqaUBKTNV-1" vertex="1">
          <mxGeometry x="765" y="488" width="30" height="30" as="geometry" />
        </mxCell>
        <mxCell id="OhwirgPrC2YLUbsvfYcL-54" value="" style="endArrow=open;endFill=1;endSize=12;html=1;rounded=0;exitX=0.447;exitY=1.016;exitDx=0;exitDy=0;exitPerimeter=0;" parent="WIyWlLk6GJQsqaUBKTNV-1" source="l0dRIvrW9T533fnr_r0f-3" edge="1">
          <mxGeometry width="160" relative="1" as="geometry">
            <mxPoint x="1330" y="670" as="sourcePoint" />
            <mxPoint x="1589" y="340" as="targetPoint" />
          </mxGeometry>
        </mxCell>
        <mxCell id="OhwirgPrC2YLUbsvfYcL-55" value="1" style="text;html=1;align=center;verticalAlign=middle;resizable=0;points=[];autosize=1;strokeColor=none;fillColor=none;" parent="WIyWlLk6GJQsqaUBKTNV-1" vertex="1">
          <mxGeometry x="1595" y="278" width="30" height="30" as="geometry" />
        </mxCell>
        <mxCell id="OhwirgPrC2YLUbsvfYcL-56" value="1" style="text;html=1;align=center;verticalAlign=middle;resizable=0;points=[];autosize=1;strokeColor=none;fillColor=none;" parent="WIyWlLk6GJQsqaUBKTNV-1" vertex="1">
          <mxGeometry x="1605" y="318" width="30" height="30" as="geometry" />
        </mxCell>
        <mxCell id="OhwirgPrC2YLUbsvfYcL-60" value="" style="endArrow=open;endFill=1;endSize=12;html=1;rounded=0;exitX=0.453;exitY=1.003;exitDx=0;exitDy=0;exitPerimeter=0;entryX=0.519;entryY=0.023;entryDx=0;entryDy=0;entryPerimeter=0;" parent="WIyWlLk6GJQsqaUBKTNV-1" source="l0dRIvrW9T533fnr_r0f-36" target="l0dRIvrW9T533fnr_r0f-46" edge="1">
          <mxGeometry width="160" relative="1" as="geometry">
            <mxPoint x="1480" y="1240" as="sourcePoint" />
            <mxPoint x="1640" y="1240" as="targetPoint" />
          </mxGeometry>
        </mxCell>
        <mxCell id="OhwirgPrC2YLUbsvfYcL-62" value="1" style="text;html=1;align=center;verticalAlign=middle;resizable=0;points=[];autosize=1;strokeColor=none;fillColor=none;" parent="WIyWlLk6GJQsqaUBKTNV-1" vertex="1">
          <mxGeometry x="1575" y="1178" width="30" height="30" as="geometry" />
        </mxCell>
        <mxCell id="OhwirgPrC2YLUbsvfYcL-63" value="1" style="text;html=1;align=center;verticalAlign=middle;resizable=0;points=[];autosize=1;strokeColor=none;fillColor=none;" parent="WIyWlLk6GJQsqaUBKTNV-1" vertex="1">
          <mxGeometry x="1575" y="1238" width="30" height="30" as="geometry" />
        </mxCell>
        <mxCell id="0YzkDGkbg9nfAulEuSXa-0" value="ViewDetailsController" style="swimlane;fontStyle=2;align=center;verticalAlign=top;childLayout=stackLayout;horizontal=1;startSize=26;horizontalStack=0;resizeParent=1;resizeLast=0;collapsible=1;marginBottom=0;rounded=0;shadow=0;strokeWidth=1;" vertex="1" parent="WIyWlLk6GJQsqaUBKTNV-1">
          <mxGeometry x="1990" y="930" width="400" height="210" as="geometry">
            <mxRectangle x="230" y="140" width="160" height="26" as="alternateBounds" />
          </mxGeometry>
        </mxCell>
        <mxCell id="0YzkDGkbg9nfAulEuSXa-1" value="- nicknameLabel : Label&#xa;- usernameLabel : Label&#xa;- passwordLabel : Label&#xa;- notesLabel : Label&#xa;- viewDetailsContainer : AnchorPane&#xa;- credential : CredentialDetails&#xa;&#xa;&#xa;&#xa;" style="text;align=left;verticalAlign=top;spacingLeft=4;spacingRight=4;overflow=hidden;rotatable=0;points=[[0,0.5],[1,0.5]];portConstraint=eastwest;" vertex="1" parent="0YzkDGkbg9nfAulEuSXa-0">
          <mxGeometry y="26" width="400" height="94" as="geometry" />
        </mxCell>
        <mxCell id="0YzkDGkbg9nfAulEuSXa-2" value="" style="line;html=1;strokeWidth=1;align=left;verticalAlign=middle;spacingTop=-1;spacingLeft=3;spacingRight=3;rotatable=0;labelPosition=right;points=[];portConstraint=eastwest;" vertex="1" parent="0YzkDGkbg9nfAulEuSXa-0">
          <mxGeometry y="120" width="400" height="8" as="geometry" />
        </mxCell>
        <mxCell id="0YzkDGkbg9nfAulEuSXa-3" value="+ setCredentials(credential : CredentialDetails) : void&#xa;+ setViewDetailsController(viewDetailsContainer : AnchorPane) : void&#xa;+ copyUsername() : void&#xa;+ copyPassword() : void&#xa;+ viewPassword(event : ActionEvent) : void&#xa;" style="text;align=left;verticalAlign=top;spacingLeft=4;spacingRight=4;overflow=hidden;rotatable=0;points=[[0,0.5],[1,0.5]];portConstraint=eastwest;" vertex="1" parent="0YzkDGkbg9nfAulEuSXa-0">
          <mxGeometry y="128" width="400" height="82" as="geometry" />
        </mxCell>
        <mxCell id="0YzkDGkbg9nfAulEuSXa-5" value="" style="endArrow=classic;startArrow=classic;html=1;rounded=0;exitX=1.009;exitY=0.707;exitDx=0;exitDy=0;exitPerimeter=0;entryX=-0.007;entryY=0.268;entryDx=0;entryDy=0;entryPerimeter=0;" edge="1" parent="WIyWlLk6GJQsqaUBKTNV-1" source="l0dRIvrW9T533fnr_r0f-7" target="0YzkDGkbg9nfAulEuSXa-3">
          <mxGeometry width="50" height="50" relative="1" as="geometry">
            <mxPoint x="1820" y="780" as="sourcePoint" />
            <mxPoint x="1870" y="730" as="targetPoint" />
          </mxGeometry>
        </mxCell>
        <mxCell id="0YzkDGkbg9nfAulEuSXa-7" value="1" style="text;html=1;align=center;verticalAlign=middle;resizable=0;points=[];autosize=1;strokeColor=none;fillColor=none;" vertex="1" parent="WIyWlLk6GJQsqaUBKTNV-1">
          <mxGeometry x="1755" y="878" width="30" height="30" as="geometry" />
        </mxCell>
        <mxCell id="0YzkDGkbg9nfAulEuSXa-8" value="1" style="text;html=1;align=center;verticalAlign=middle;resizable=0;points=[];autosize=1;strokeColor=none;fillColor=none;" vertex="1" parent="WIyWlLk6GJQsqaUBKTNV-1">
          <mxGeometry x="1945" y="1018" width="30" height="30" as="geometry" />
        </mxCell>
      </root>
    </mxGraphModel>
  </diagram>
</mxfile>
